REM DIRINDEX 1\5,1\2\6,1\2\7,1\3\8,1\3\9,1\3\10,1\3\11,1\4\12,1\4\13,1\4\14
REM DIRNAME cjc043,folder01,folder02,folder03,folder04,folder05,folder06,folder07,folder08,folder09,folder10,folder11,folder12,folder13
TITLE ""
FILE "5Q_t_112-128.mp3" MP3
  TRACK 01 AUDIO
    TITLE "6:cjc043_0615"
    INDEX 01 00:00:00
  TRACK 02 AUDIO
    TITLE "0:"
    INDEX 01 00:00:62
  TRACK 03 AUDIO
    TITLE "7:cjc043_0616"
    INDEX 01 00:01:50
  TRACK 04 AUDIO
    TITLE "0:"
    INDEX 01 00:02:69
  TRACK 05 AUDIO
    TITLE "6:cjc043_0617"
    INDEX 01 00:03:47
  TRACK 06 AUDIO
    TITLE "0:"
    INDEX 01 00:04:62
  TRACK 07 AUDIO
    TITLE "7:cjc043_0618"
    INDEX 01 00:05:42
  TRACK 08 AUDIO
    TITLE "0:"
    INDEX 01 00:07:23
  TRACK 09 AUDIO
    TITLE "6:cjc043_0619"
    INDEX 01 00:08:01
  TRACK 10 AUDIO
    TITLE "0:"
    INDEX 01 00:08:72
  TRACK 11 AUDIO
    TITLE "7:cjc043_0620"
    INDEX 01 00:09:51
  TRACK 12 AUDIO
    TITLE "0:"
    INDEX 01 00:10:41
  TRACK 13 AUDIO
    TITLE "6:cjc043_0621"
    INDEX 01 00:11:13
  TRACK 14 AUDIO
    TITLE "0:"
    INDEX 01 00:12:14
  TRACK 15 AUDIO
    TITLE "7:cjc043_0622"
    INDEX 01 00:12:67
  TRACK 16 AUDIO
    TITLE "0:"
    INDEX 01 00:14:33
  TRACK 17 AUDIO
    TITLE "6:cjc043_0623"
    INDEX 01 00:15:13
  TRACK 18 AUDIO
    TITLE "0:"
    INDEX 01 00:16:18
  TRACK 19 AUDIO
    TITLE "7:cjc043_0624"
    INDEX 01 00:16:69
  TRACK 20 AUDIO
    TITLE "0:"
    INDEX 01 00:17:72
  TRACK 21 AUDIO
    TITLE "6:cjc043_0625"
    INDEX 01 00:18:48
  TRACK 22 AUDIO
    TITLE "0:"
    INDEX 01 00:20:02
  TRACK 23 AUDIO
    TITLE "7:cjc043_0626"
    INDEX 01 00:20:51
  TRACK 24 AUDIO
    TITLE "0:"
    INDEX 01 00:21:74
  TRACK 25 AUDIO
    TITLE "6:cjc043_0627"
    INDEX 01 00:22:48
  TRACK 26 AUDIO
    TITLE "0:"
    INDEX 01 00:23:48
  TRACK 27 AUDIO
    TITLE "7:cjc043_0628"
    INDEX 01 00:24:22
  TRACK 28 AUDIO
    TITLE "0:"
    INDEX 01 00:25:39
  TRACK 29 AUDIO
    TITLE "6:cjc043_0629"
    INDEX 01 00:26:17
  TRACK 30 AUDIO
    TITLE "0:"
    INDEX 01 00:27:20
  TRACK 31 AUDIO
    TITLE "7:cjc043_0630"
    INDEX 01 00:27:71
  TRACK 32 AUDIO
    TITLE "0:"
    INDEX 01 00:28:72
  TRACK 33 AUDIO
    TITLE "6:cjc043_0631"
    INDEX 01 00:29:46
  TRACK 34 AUDIO
    TITLE "0:"
    INDEX 01 00:30:48
  TRACK 35 AUDIO
    TITLE "7:cjc043_0632"
    INDEX 01 00:31:24
  TRACK 36 AUDIO
    TITLE "0:"
    INDEX 01 00:33:17
  TRACK 37 AUDIO
    TITLE "6:cjc043_0633"
    INDEX 01 00:33:71
  TRACK 38 AUDIO
    TITLE "0:"
    INDEX 01 00:35:02
  TRACK 39 AUDIO
    TITLE "7:cjc043_0634"
    INDEX 01 00:35:57
  TRACK 40 AUDIO
    TITLE "0:"
    INDEX 01 00:37:12
  TRACK 41 AUDIO
    TITLE "6:cjc043_0635"
    INDEX 01 00:37:63
  TRACK 42 AUDIO
    TITLE "0:"
    INDEX 01 00:39:00
  TRACK 43 AUDIO
    TITLE "7:cjc043_0636"
    INDEX 01 00:39:52
  TRACK 44 AUDIO
    TITLE "0:"
    INDEX 01 00:40:56
  TRACK 45 AUDIO
    TITLE "6:cjc043_0637"
    INDEX 01 00:41:34
  TRACK 46 AUDIO
    TITLE "0:"
    INDEX 01 00:42:45
  TRACK 47 AUDIO
    TITLE "7:cjc043_0638"
    INDEX 01 00:43:19
  TRACK 48 AUDIO
    TITLE "0:"
    INDEX 01 00:44:30
  TRACK 49 AUDIO
    TITLE "6:cjc043_0639"
    INDEX 01 00:45:10
  TRACK 50 AUDIO
    TITLE "0:"
    INDEX 01 00:46:23
  TRACK 51 AUDIO
    TITLE "7:cjc043_0640"
    INDEX 01 00:47:03
  TRACK 52 AUDIO
    TITLE "0:"
    INDEX 01 00:48:20
  TRACK 53 AUDIO
    TITLE "6:cjc043_0641"
    INDEX 01 00:48:69
  TRACK 54 AUDIO
    TITLE "0:"
    INDEX 01 00:49:74
  TRACK 55 AUDIO
    TITLE "7:cjc043_0642"
    INDEX 01 00:50:48
  TRACK 56 AUDIO
    TITLE "0:"
    INDEX 01 00:51:63
  TRACK 57 AUDIO
    TITLE "6:cjc043_0643"
    INDEX 01 00:52:41
  TRACK 58 AUDIO
    TITLE "0:"
    INDEX 01 00:53:51
  TRACK 59 AUDIO
    TITLE "7:cjc043_0644"
    INDEX 01 00:54:30
  TRACK 60 AUDIO
    TITLE "0:"
    INDEX 01 00:56:41
  TRACK 61 AUDIO
    TITLE "6:cjc043_0645"
    INDEX 01 00:57:15
  TRACK 62 AUDIO
    TITLE "0:"
    INDEX 01 00:58:32
  TRACK 63 AUDIO
    TITLE "7:cjc043_0646"
    INDEX 01 00:59:08
  TRACK 64 AUDIO
    TITLE "0:"
    INDEX 01 01:01:44
  TRACK 65 AUDIO
    TITLE "6:cjc043_0647"
    INDEX 01 01:02:24
  TRACK 66 AUDIO
    TITLE "0:"
    INDEX 01 01:03:35
  TRACK 67 AUDIO
    TITLE "7:cjc043_0648"
    INDEX 01 01:04:15
  TRACK 68 AUDIO
    TITLE "0:"
    INDEX 01 01:05:21
